<svg xmlns="http://www.w3.org/2000/svg" xmlns:xlink="http://www.w3.org/1999/xlink" width="500" zoomAndPan="magnify" viewBox="0 0 375 374.999991" height="500" preserveAspectRatio="xMidYMid meet" version="1.0"><defs><clipPath id="e31aeece0e"><path d="M 15.277344 2.414062 L 359.722656 2.414062 L 359.722656 346.863281 L 15.277344 346.863281 Z M 15.277344 2.414062 " clip-rule="nonzero"/></clipPath><clipPath id="e88363653f"><path d="M 187.5 2.414062 C 92.382812 2.414062 15.277344 79.523438 15.277344 174.640625 C 15.277344 269.753906 92.382812 346.863281 187.5 346.863281 C 282.617188 346.863281 359.722656 269.753906 359.722656 174.640625 C 359.722656 79.523438 282.617188 2.414062 187.5 2.414062 Z M 187.5 2.414062 " clip-rule="nonzero"/></clipPath><clipPath id="81985e6b30"><path d="M 88 17.21875 L 309 17.21875 L 309 372.71875 L 88 372.71875 Z M 88 17.21875 " clip-rule="nonzero"/></clipPath></defs><g clip-path="url(#e31aeece0e)"><g clip-path="url(#e88363653f)"><path fill="#37cb6e" d="M 15.277344 2.414062 L 359.722656 2.414062 L 359.722656 346.863281 L 15.277344 346.863281 Z M 15.277344 2.414062 " fill-opacity="1" fill-rule="nonzero"/></g></g><g clip-path="url(#81985e6b30)"><path fill="#000000" d="M 304.730469 17.21875 L 177.921875 17.21875 C 176.40625 17.21875 175.035156 18.066406 174.339844 19.410156 L 93.117188 178.300781 C 92.472656 179.546875 92.527344 181.046875 93.261719 182.246094 C 94.003906 183.441406 95.292969 184.183594 96.714844 184.183594 L 181.234375 184.183594 L 88.554688 366.847656 C 87.640625 368.648438 88.199219 370.851562 89.867188 372.007812 C 90.5625 372.484375 91.367188 372.71875 92.148438 372.71875 C 93.261719 372.71875 94.359375 372.257812 95.148438 371.378906 L 303.164062 139.519531 C 304.230469 138.339844 304.496094 136.636719 303.84375 135.179688 C 303.199219 133.710938 301.746094 132.78125 300.15625 132.78125 L 215.5 132.78125 L 307.800781 23.878906 C 308.8125 22.683594 309.042969 20.992188 308.382812 19.554688 C 307.722656 18.132812 306.292969 17.21875 304.730469 17.21875 Z M 304.730469 17.21875 " fill-opacity="1" fill-rule="nonzero"/></g></svg>